# xmcd CD database file
#
# Track frame offsets:
#	150
#	16451
#	35205
#	54863
#	72642
#	94991
#	116557
#	131103
#	147342
#	148364
#	163645
#	184360
#	236377
#
# Disc length: 3268 seconds
#
# Revision: 1
# Processed by: cddbd v1.5.1PL0 Copyright (c) Steve Scherf et al.
# Submitted via: CDex 1.51
#
DISCID=cb0cc20d
DTITLE=King Khan and The Shrines - Mr. Supernatural
DYEAR=2004
DGENRE=Funk
TTITLE0=On The Streeet Where I Live
TTITLE1=Mr. Supernatural
TTITLE2=Destroyer
TTITLE3=On A Brass Bed (In Paradise)
TTITLE4=Pickin' Up The Trash
TTITLE5=Stone Soup
TTITLE6=Lovesick
TTITLE7=Train No. 8
TTITLE8=Intro
TTITLE9=I Don't Have To Tell You
TTITLE10=Shattered
TTITLE11=Burnin' Inside
TTITLE12=Data Track
EXTD=YEAR: 2004
EXTT0=
EXTT1=
EXTT2=
EXTT3=
EXTT4=
EXTT5=
EXTT6=
EXTT7=
EXTT8=
EXTT9=
EXTT10=
EXTT11=
EXTT12=
PLAYORDER=
